<?xml version="1.0" encoding="utf-8"?>
<!-- Generator: Adobe Illustrator 16.0.0, SVG Export Plug-In . SVG Version: 6.00 Build 0)  -->
<!DOCTYPE svg PUBLIC "-//W3C//DTD SVG 1.1//EN" "http://www.w3.org/Graphics/SVG/1.1/DTD/svg11.dtd">
<svg version="1.1" id="Layer_1" xmlns="http://www.w3.org/2000/svg" xmlns:xlink="http://www.w3.org/1999/xlink" x="0px" y="0px"
	 width="1800px" height="210px" viewBox="0 0 1800 210" enable-background="new 0 0 1800 210" xml:space="preserve">
<g>
	<g>
		<path fill="#400095" d="M2.248,197.865l10.758-10.756c2.621-2.622,3.936-5.59,3.936-8.921V8.441h2.624l128.554,115.962V39.141
			c0-3.324-1.312-6.3-3.937-8.922l-10.757-10.753V16.84h67.952v2.626l-10.753,10.753c-2.626,2.625-3.938,5.598-3.938,8.922v168.434
			h-2.622L55.509,91.349v86.839c0,3.323,1.309,6.299,3.932,8.921l10.758,10.756v2.622H2.248V197.865z"/>
		<path fill="#400095" d="M220.257,197.865l10.757-10.756c2.624-2.622,3.937-5.59,3.937-8.921V39.141c0-3.324-1.313-6.3-3.937-8.922
			l-10.757-10.753V16.84h108.354c18.893,0,33.364,4.289,43.419,12.856c10.06,8.567,15.087,19.938,15.087,34.103
			c0,21.338-11.019,34.725-33.058,40.144v0.526c27.109,4.724,40.666,19.675,40.666,44.863c0,16.787-5.903,29.512-17.709,38.174
			c-11.808,8.654-28.29,12.986-49.456,12.986H220.257V197.865z M323.364,89.51c14.864,0,22.301-6.468,22.301-19.412
			c0-6.124-1.882-11.016-5.643-14.691c-3.759-3.675-9.313-5.514-16.658-5.514h-46.439V89.51H323.364z M322.578,166.911
			c19.765,0,29.644-7.787,29.644-23.353c0-14.691-9.879-22.037-29.644-22.037h-45.649v45.39H322.578z"/>
		<path fill="#400095" d="M445.09,178.322c-18.188-17.229-27.283-40.277-27.283-69.13c0-29.039,9.181-52.212,27.548-69.529
			c18.366-17.309,41.627-25.971,69.785-25.971c6.297,0,13.995,0.565,23.089,1.702c9.093,1.141,14.778,1.709,17.051,1.709
			c6.647,0,12.771-2.19,18.366-6.563l2.624,1.049l-15.741,62.18l-2.885-0.786c-1.921-6.647-6.252-12.417-12.987-17.313
			c-6.733-4.899-15.696-7.345-26.891-7.345c-15.918,0-29.077,5.548-39.485,16.656c-10.403,11.108-15.608,25.929-15.608,44.475
			c0,18.015,4.897,32.572,14.692,43.68c9.796,11.109,22.649,16.661,38.568,16.661c18.537,0,33.141-7.258,43.812-21.773l24.66,28.593
			c-17.139,18.366-40.49,27.551-70.051,27.551C486.368,204.163,463.28,195.55,445.09,178.322z"/>
		<path fill="#400095" d="M635.816,184.751c-14.342-12.943-21.517-31.748-21.517-56.41v-89.2c0-3.324-1.309-6.3-3.934-8.922
			l-10.757-10.753V16.84h70.836v2.626l-10.757,10.753c-2.624,2.625-3.935,5.598-3.935,8.922v90.249
			c0,13.295,3.236,23.263,9.708,29.906c6.472,6.65,15.742,9.975,27.811,9.975c11.893,0,21.031-3.37,27.417-10.102
			c6.385-6.734,9.574-16.66,9.574-29.779V39.141c0-3.324-1.313-6.3-3.936-8.922l-10.76-10.753V16.84h71.363v2.626l-10.753,10.753
			c-2.625,2.625-3.936,5.598-3.936,8.922v89.2c0,24.662-7.214,43.467-21.645,56.41c-14.432,12.944-33.54,19.412-57.328,19.412
			C669.311,204.163,650.156,197.695,635.816,184.751z"/>
		<path fill="#400095" d="M806.076,197.865l10.759-10.756c2.62-2.622,3.933-6.647,3.933-12.069v-75.032
			c0-5.423-1.313-9.445-3.933-12.069l-10.759-10.757V74.56h53v22.563c2.97-7.178,8.438-13.12,16.393-17.844
			c7.96-4.72,16.576-7.082,25.85-7.082c13.64,0,24.217,4.373,31.742,13.115c7.525,8.746,11.279,20.991,11.279,36.735v52.995
			c0,5.419,1.313,9.444,3.938,12.069l10.754,10.753v2.627h-54.049v-69.789c0-7.521-1.745-13.513-5.249-17.973
			c-3.495-4.457-8.653-6.69-15.471-6.69c-8.05,0-14.079,2.492-18.106,7.477c-4.022,4.983-6.033,11.417-6.033,19.285v42.238
			c0,5.422,1.311,9.447,3.933,12.069l10.759,10.756v2.627h-68.738V197.865L806.076,197.865z"/>
		<path fill="#400095" d="M970.83,197.865l10.761-10.756c2.625-2.622,3.931-6.647,3.931-12.069v-75.032
			c0-5.423-1.306-9.445-3.931-12.069L970.83,77.181V74.56h54.049v100.483c0,5.419,1.313,9.444,3.93,12.069l10.762,10.753v2.627
			h-68.74V197.865z M988.544,49.371c-4.633-4.374-6.953-9.795-6.953-16.263c0-6.472,2.313-11.894,6.953-16.268
			c4.632-4.373,10.104-6.556,16.393-6.556c6.304,0,11.769,2.183,16.4,6.556c4.633,4.374,6.953,9.796,6.953,16.268
			c0,6.468-2.32,11.89-6.953,16.263c-4.632,4.374-10.097,6.56-16.4,6.56C998.648,55.93,993.176,53.744,988.544,49.371z"/>
		<path fill="#400095" d="M1062.129,102.633c-5.952-11.546-12.593-19.942-19.934-25.189V74.56h48.264l25.979,60.867h0.526
			l22.827-60.867h49.057v2.884c-7.517,5.243-14.164,13.643-19.934,25.189l-51.95,103.633h-2.625L1062.129,102.633z"/>
		<path fill="#400095" d="M1211.407,186.721c-12.416-11.636-18.629-27.337-18.629-47.101c0-19.934,6.121-36.159,18.369-48.664
			c12.242-12.508,28.856-18.759,49.844-18.759c20.293,0,35.504,5.903,45.646,17.709c10.15,11.802,15.225,27.677,15.225,47.619
			c0,4.021-0.183,7.785-0.526,11.284h-88.154c0.877,6.643,4.113,12.237,9.707,16.785c5.594,4.553,13.027,6.823,22.3,6.823
			c11.724,0,20.729-3.499,27.024-10.493l21.773,25.712c-11.89,11.017-29.299,16.526-52.208,16.526
			C1240.615,204.163,1223.824,198.344,1211.407,186.721z M1240.264,108.666c-4.549,4.725-7.082,10.494-7.609,17.313h49.325
			c-0.352-7.17-2.534-13.027-6.557-17.576c-4.021-4.548-9.708-6.822-17.057-6.822
			C1250.849,101.58,1244.812,103.942,1240.264,108.666z"/>
		<path fill="#400095" d="M1339.95,197.865l10.761-10.756c2.625-2.622,3.931-6.647,3.931-12.069v-75.032
			c0-5.423-1.306-9.445-3.931-12.069l-10.761-10.757V74.56h53.003v25.448c2.969-8.052,7.869-14.695,14.684-19.942
			c6.831-5.243,14.69-7.868,23.621-7.868c6.464,0,11.974,1.222,16.522,3.67l-10.234,39.354c-5.595-4.892-11.891-7.342-18.888-7.342
			c-7.694,0-13.73,2.537-18.104,7.612c-4.372,5.067-6.556,12.237-6.556,21.511v38.037c0,5.422,1.306,9.447,3.932,12.069
			l10.76,10.756v2.627h-68.739V197.865L1339.95,197.865z"/>
		<path fill="#400095" d="M1451.977,187.109l18.362-26.761c11.724,9.62,25.796,14.433,42.243,14.433
			c11.188,0,16.789-3.504,16.789-10.495c0-3.327-1.441-5.864-4.335-7.608c-2.877-1.756-6.685-2.973-11.409-3.675
			c-4.716-0.698-10.05-1.572-16.003-2.625c-25.713-4.369-38.571-16.707-38.571-36.992c0-14.515,5.121-25.013,15.354-31.48
			c10.227-6.476,23.217-9.712,38.961-9.712c6.112,0,12.547,0.573,19.285,1.709c6.73,1.133,11.233,1.702,13.509,1.702
			c5.77,0,11.539-2.186,17.315-6.556l2.618,1.049l-12.325,48.012l-2.626-0.79c-5.25-11.192-17.056-16.79-35.418-16.79
			c-11.021,0-16.53,3.231-16.53,9.708c0,2.972,1.357,5.338,4.066,7.082c2.71,1.747,6.343,2.935,10.892,3.545
			c4.548,0.614,9.7,1.442,15.478,2.488c11.371,1.927,20.856,5.777,28.466,11.551c7.609,5.766,11.409,14.16,11.409,25.185
			c0,13.989-5.289,24.83-15.866,32.527c-10.586,7.697-25.146,11.547-43.685,11.547
			C1485.123,204.163,1465.791,198.48,1451.977,187.109z"/>
		<path fill="#400095" d="M1596.523,194.063c-7.692-6.735-11.539-15.61-11.539-26.627c0-13.818,5.021-24.141,15.088-30.96
			c10.052-6.822,25.751-10.405,47.09-10.756c6.646-0.176,11.195-1.008,13.637-2.492c2.45-1.484,3.679-4.067,3.679-7.735
			c0-3.683-1.878-6.738-5.64-9.188c-3.763-2.449-9.486-3.671-17.18-3.671c-11.729,0-22.392,4.369-32.016,13.119l-20.46-24.139
			c12.943-12.94,31.74-19.416,56.407-19.416c19.94,0,34.586,4.026,43.943,12.07c9.357,8.048,14.034,20.286,14.034,36.728v54.048
			c0,5.424,1.313,9.444,3.938,12.069l10.754,10.753v2.63h-52.995v-17.057c-3.144,6.125-8.22,11.104-15.219,14.954
			c-6.997,3.848-15.125,5.774-24.397,5.774C1613.933,204.163,1604.217,200.797,1596.523,194.063z M1657.662,169.399
			c4.541-4.632,6.815-10.185,6.815-16.656v-8.662c-2.274,0.874-7.785,1.576-16.53,2.104c-15.737,0.874-23.613,6.292-23.613,16.263
			c0,4.026,1.313,7.346,3.938,9.971c2.619,2.622,6.565,3.935,11.807,3.935C1647.253,176.353,1653.106,174.035,1657.662,169.399z"/>
		<path fill="#400095" d="M1729.012,197.865l10.753-10.756c2.627-2.622,3.938-6.647,3.938-12.069V27.333
			c0-5.422-1.312-9.444-3.938-12.069l-10.753-10.757V1.882h54.041V175.04c0,5.422,1.321,9.447,3.938,12.069l10.762,10.756v2.627
			h-68.74V197.865z"/>
	</g>
</g>
</svg>
